<?xml version="1.0" encoding="UTF-8"?>
<!DOCTYPE svg PUBLIC "-//W3C//DTD SVG 1.1//EN" "http://www.w3.org/Graphics/SVG/1.1/DTD/svg11.dtd">
<svg xmlns="http://www.w3.org/2000/svg" version="1.1" width="1200px" height="1200px" style="shape-rendering:geometricPrecision; text-rendering:geometricPrecision; image-rendering:optimizeQuality; fill-rule:evenodd; clip-rule:evenodd" xmlns:xlink="http://www.w3.org/1999/xlink">
<g><path style="opacity:0.913" fill="#cccdcc" d="M 485.5,47.5 C 562.5,47.5 639.5,47.5 716.5,47.5C 716.5,50.8333 716.5,54.1667 716.5,57.5C 737.9,57.0336 759.233,57.5336 780.5,59C 774.623,62.8043 773.956,67.471 778.5,73C 781.674,74.7248 785.007,76.0581 788.5,77C 803.55,77.1055 818.55,77.9388 833.5,79.5C 829.065,83.3762 828.398,87.8762 831.5,93C 836.194,95.4238 841.194,96.7572 846.5,97C 856.519,97.387 866.519,98.0536 876.5,99C 869.877,104.473 869.877,109.806 876.5,115C 887.94,116.884 899.273,118.384 910.5,119.5C 908.016,121.091 907.016,123.425 907.5,126.5C 907.051,130.433 908.384,133.6 911.5,136C 920.525,137.522 929.525,138.355 938.5,138.5C 940.167,138.833 941.833,139.167 943.5,139.5C 942.675,140.386 941.675,140.719 940.5,140.5C 937.936,147.163 939.602,152.329 945.5,156C 947.916,157.063 950.416,157.896 953,158.5C 957.818,158.162 962.485,158.162 967,158.5C 965.654,162.644 965.321,166.978 966,171.5C 967.112,174.278 968.945,176.445 971.5,178C 977.833,178.333 984.167,178.667 990.5,179C 985.401,194.569 990.901,200.735 1007,197.5C 1008.63,197.878 1010.13,198.544 1011.5,199.5C 1008.64,205.239 1008.97,210.739 1012.5,216C 1015.01,217.336 1017.68,218.17 1020.5,218.5C 1023.87,217.377 1027.2,217.377 1030.5,218.5C 1030.83,219 1031.17,219.5 1031.5,220C 1027.61,227.689 1029.28,233.689 1036.5,238C 1040.93,238.406 1045.09,238.24 1049,237.5C 1049.69,241.002 1049.19,244.336 1047.5,247.5C 1047.76,251.749 1049.42,255.249 1052.5,258C 1057.17,258.333 1061.83,258.667 1066.5,259C 1066.53,263.026 1066.7,267.193 1067,271.5C 1067.67,273.5 1068.33,275.5 1069,277.5C 1075.15,278.334 1081.32,279.334 1087.5,280.5C 1085.83,287.132 1086.66,293.465 1090,299.5C 1092.29,299.263 1094.79,299.263 1097.5,299.5C 1096.27,302.003 1095.27,304.669 1094.5,307.5C 1095.41,314.456 1099.07,316.289 1105.5,313C 1108.03,309.568 1108.7,309.735 1107.5,313.5C 1108.17,315.167 1108.83,316.833 1109.5,318.5C 1108.04,325.226 1108.21,331.893 1110,338.5C 1114.15,339.455 1118.48,339.455 1123,338.5C 1123.33,339.167 1123.67,339.833 1124,340.5C 1125,339.167 1126,339.167 1127,340.5C 1128.98,350.138 1129.48,359.804 1128.5,369.5C 1129.23,371.976 1129.9,374.476 1130.5,377C 1130.91,377.945 1131.57,378.612 1132.5,379C 1137.17,379.333 1141.83,379.667 1146.5,380C 1147,380.5 1147.5,381 1148,381.5C 1149.43,394.169 1149.93,406.836 1149.5,419.5C 1155.28,419.49 1160.95,420.323 1166.5,422C 1167.13,422.75 1167.63,423.584 1168,424.5C 1169.46,442.848 1169.96,461.182 1169.5,479.5C 1172.83,479.5 1176.17,479.5 1179.5,479.5C 1179.5,539.833 1179.5,600.167 1179.5,660.5C 792.5,660.5 405.5,660.5 18.5,660.5C 18.5,600.167 18.5,539.833 18.5,479.5C 21.8333,479.5 25.1667,479.5 28.5,479.5C 28.061,461.175 28.561,442.842 30,424.5C 30.5,422.667 31.6667,421.5 33.5,421C 38.4636,420.088 43.4636,419.588 48.5,419.5C 48.1386,406.836 48.6386,394.169 50,381.5C 50.5,381 51,380.5 51.5,380C 56.7503,379.807 61.917,379.307 67,378.5C 68.1239,365.84 69.4573,353.174 71,340.5C 72.3333,339.167 73.6667,339.167 75,340.5C 75.3333,339.833 75.6667,339.167 76,338.5C 80.2536,339.866 84.4202,339.533 88.5,337.5C 89.8333,331.167 89.8333,324.833 88.5,318.5C 89.8511,315.481 90.3511,312.481 90,309.5C 93.3932,314.712 97.5599,315.546 102.5,312C 103.108,310.769 103.441,309.436 103.5,308C 102.24,305.247 101.24,302.413 100.5,299.5C 103.212,299.263 105.712,299.263 108,299.5C 111.336,293.465 112.169,287.132 110.5,280.5C 116.476,279.369 122.476,278.369 128.5,277.5C 130.198,274.208 131.198,270.708 131.5,267C 130.133,263.923 129.633,260.756 130,257.5C 130.333,258.167 130.667,258.833 131,259.5C 135.749,258.695 140.582,258.195 145.5,258C 148.285,255.487 149.618,252.321 149.5,248.5C 148.714,244.844 148.547,241.177 149,237.5C 152.906,238.24 157.073,238.406 161.5,238C 168.72,233.689 170.387,227.689 166.5,220C 166.833,219.5 167.167,219 167.5,218.5C 171.79,217.876 176.124,217.71 180.5,218C 186.557,216.863 189.224,213.196 188.5,207C 188.589,204.287 187.922,201.787 186.5,199.5C 188.003,198.443 189.67,197.776 191.5,197.5C 207.134,200.536 212.468,194.536 207.5,179.5C 214.191,178.798 220.857,178.132 227.5,177.5C 232.86,172.274 233.86,166.274 230.5,159.5C 230.808,158.692 231.308,158.025 232,157.5C 236.153,158.072 240.32,158.405 244.5,158.5C 252.135,157.356 257.135,153.189 259.5,146C 258.909,142.976 257.243,140.809 254.5,139.5C 265.073,138.579 275.74,137.412 286.5,136C 290.305,131.909 291.472,127.076 290,121.5C 289.075,120.953 288.242,120.287 287.5,119.5C 290.815,118.053 294.148,117.719 297.5,118.5C 304.155,117.743 310.821,116.91 317.5,116C 324.945,114.938 327.779,110.771 326,103.5C 324.5,102 323,100.5 321.5,99C 331.813,98.0343 342.146,97.3677 352.5,97C 357.357,96.8109 362.024,95.8109 366.5,94C 370.699,88.7186 370.366,83.7186 365.5,79C 380.145,77.9173 394.812,77.2506 409.5,77C 413.805,76.0968 417.639,74.2635 421,71.5C 423.856,66.0799 422.689,61.9132 417.5,59C 440.101,57.5315 462.767,57.0315 485.5,57.5C 485.5,54.1667 485.5,50.8333 485.5,47.5 Z"/></g>
<g><path style="opacity:0.612" fill="#cccdcc" d="M 18.5,680.5 C 405.5,680.5 792.5,680.5 1179.5,680.5C 1179.5,713.833 1179.5,747.167 1179.5,780.5C 792.5,780.5 405.5,780.5 18.5,780.5C 18.5,747.167 18.5,713.833 18.5,680.5 Z"/></g>
<g><path style="opacity:0.004" fill="#cccdcc" d="M 416.5,801.5 C 538.202,801.009 659.869,801.509 781.5,803C 666.001,804.152 550.501,804.985 435,805.5C 427.837,804.667 420.67,803.834 413.5,803C 414.737,802.768 415.737,802.268 416.5,801.5 Z"/></g>
<g><path style="opacity:0.494" fill="#cccdcc" d="M 40.5,806.5 C 42.0109,808.476 42.8442,810.809 43,813.5C 43.6667,808.167 44.3333,808.167 45,813.5C 45.3333,813.167 45.6667,812.833 46,812.5C 48.0255,816.264 51.1921,818.097 55.5,818C 87.6605,818.887 119.827,819.387 152,819.5C 223.011,818.473 294.011,818.473 365,819.5C 388.449,819.459 411.782,817.793 435,814.5C 547.149,815.328 659.316,815.828 771.5,816C 781.833,817 792.167,818 802.5,819C 871.005,819.015 939.505,819.182 1008,819.5C 1053.16,818.729 1098.33,818.229 1143.5,818C 1148.63,817.252 1152.13,815.085 1154,811.5C 1154.67,814.167 1155.33,814.167 1156,811.5C 1156.33,812.5 1156.67,813.5 1157,814.5C 1158.81,809.258 1159.81,809.592 1160,815.5C 1161,814.5 1162,813.5 1163,812.5C 1163.19,814.577 1163.69,816.577 1164.5,818.5C 1165.48,818.023 1166.31,817.357 1167,816.5C 1169.96,830.5 1170.13,844.5 1167.5,858.5C 1166.21,859.098 1164.87,859.598 1163.5,860C 1158.85,859.367 1154.19,859.534 1149.5,860.5C 1148.25,867.318 1148.25,874.152 1149.5,881C 1149.1,886.887 1148.44,892.72 1147.5,898.5C 1135.85,900.879 1124.18,903.379 1112.5,906C 1104.5,906.167 1096.5,906.333 1088.5,906.5C 753.836,905.775 419.169,905.608 84.5,906C 75.2376,903.948 65.9042,902.281 56.5,901C 54.3686,900.457 52.3686,899.624 50.5,898.5C 49.5649,892.72 48.8983,886.887 48.5,881C 49.8019,874.157 49.8019,867.324 48.5,860.5C 46.5328,860.261 44.6995,860.594 43,861.5C 41.6309,859.304 39.7976,858.97 37.5,860.5C 31.9183,860.752 29.085,858.085 29,852.5C 28.0481,840.388 28.7147,828.388 31,816.5C 31.6891,817.357 32.5224,818.023 33.5,818.5C 34.3184,815.893 34.8184,813.226 35,810.5C 35.4186,811.672 36.0853,812.672 37,813.5C 37.3333,811.5 37.6667,809.5 38,807.5C 39.0437,808.623 39.7104,809.956 40,811.5C 40.4935,809.866 40.6602,808.199 40.5,806.5 Z"/></g>
<g><path style="opacity:0.004" fill="#cccdcc" d="M 88.5,917.5 C 116.675,917.775 144.842,918.442 173,919.5C 479.98,918.706 786.98,918.039 1094,917.5C 1099.83,917.667 1105.67,917.833 1111.5,918C 1113.38,918.216 1115.05,918.883 1116.5,920C 771.5,920.833 426.5,920.667 81.5,919.5C 83.9688,918.832 86.3021,918.165 88.5,917.5 Z"/></g>
<g><path style="opacity:0.312" fill="#cccdcc" d="M 108.5,941.5 C 435.5,941.333 762.5,941.5 1089.5,942C 1094.77,942.454 1097.44,945.288 1097.5,950.5C 1101.17,950.5 1104.83,950.5 1108.5,950.5C 1108.5,958.167 1108.5,965.833 1108.5,973.5C 1104.83,973.5 1101.17,973.5 1097.5,973.5C 1097.51,975.308 1097.01,976.975 1096,978.5C 1093.44,979.542 1091.11,980.875 1089,982.5C 1087.12,988.106 1086.45,993.773 1087,999.5C 1081.31,1001 1075.48,1002 1069.5,1002.5C 1067.96,1005.49 1066.96,1008.65 1066.5,1012C 1068.13,1016.05 1068.63,1020.21 1068,1024.5C 1065.67,1023.12 1063.17,1022.12 1060.5,1021.5C 1059.5,1023.54 1058.16,1023.88 1056.5,1022.5C 1047.61,1025.94 1044.94,1032.28 1048.5,1041.5C 1046.41,1041.68 1044.41,1041.35 1042.5,1040.5C 1041.81,1041.03 1041.31,1041.69 1041,1042.5C 747.667,1041.17 454.333,1041.17 161,1042.5C 160.481,1041.48 159.647,1040.82 158.5,1040.5C 155.396,1041.98 152.396,1041.81 149.5,1040C 151.066,1038.32 152.066,1036.32 152.5,1034C 151.514,1030.35 149.681,1027.18 147,1024.5C 146.667,1024.83 146.333,1025.17 146,1025.5C 143.149,1024.41 140.482,1023.08 138,1021.5C 135.618,1022.55 133.118,1023.22 130.5,1023.5C 130.072,1019.73 130.739,1016.23 132.5,1013C 132.094,1009.11 130.761,1005.61 128.5,1002.5C 122.521,1002 116.688,1001 111,999.5C 111.55,993.773 110.883,988.106 109,982.5C 104.629,981.123 101.962,978.123 101,973.5C 100.333,965.833 100.333,958.167 101,950.5C 101.225,945.452 103.725,942.452 108.5,941.5 Z"/></g>
<g><path style="opacity:0.004" fill="#cccdcc" d="M 90.5,950.5 C 92.1667,950.5 93.8333,950.5 95.5,950.5C 95.5,958.167 95.5,965.833 95.5,973.5C 93.8333,973.5 92.1667,973.5 90.5,973.5C 90.5,965.833 90.5,958.167 90.5,950.5 Z"/></g>
<g><path style="opacity:0.183" fill="#cccdcc" d="M 778.5,1061.5 C 841.006,1062 903.506,1062.66 966,1063.5C 972.119,1061.92 978.119,1062.26 984,1064.5C 986.329,1065.82 987.662,1067.82 988,1070.5C 988.667,1078.17 988.667,1085.83 988,1093.5C 987.781,1094.94 987.281,1096.27 986.5,1097.5C 981.184,1099.69 975.684,1101.36 970,1102.5C 969.07,1107.8 968.403,1113.13 968,1118.5C 967.692,1119.31 967.192,1119.97 966.5,1120.5C 960.551,1121.29 954.551,1121.79 948.5,1122C 938.448,1124.94 934.781,1131.44 937.5,1141.5C 930.183,1142.12 922.849,1142.45 915.5,1142.5C 915.5,1145.83 915.5,1149.17 915.5,1152.5C 704.5,1152.5 493.5,1152.5 282.5,1152.5C 282.5,1149.17 282.5,1145.83 282.5,1142.5C 275.46,1142.59 268.46,1142.09 261.5,1141C 260.503,1138.6 260.836,1136.26 262.5,1134C 260.53,1127.5 256.197,1123.5 249.5,1122C 243.058,1121.92 236.725,1121.25 230.5,1120C 229.105,1114.24 227.938,1108.41 227,1102.5C 221.756,1101.22 216.589,1099.56 211.5,1097.5C 209.953,1092.49 209.286,1087.32 209.5,1082C 206.547,1069.68 211.213,1063.18 223.5,1062.5C 389.806,1062.23 556.139,1062.57 722.5,1063.5C 741.512,1063.5 760.179,1062.83 778.5,1061.5 Z"/></g>
</svg>
